<svg width="32" height="32" xmlns="http://www.w3.org/2000/svg"><g fill="none" fill-rule="evenodd"><path d="M27.058 23.06a14.046 14.046 0 01-8.596 8.223c-.7.14-.962-.298-.962-.666 0-.472.017-1.977.017-3.85 0-1.312-.437-2.152-.944-2.59.811-.09 1.633-.239 2.406-.503a14.084 14.084 0 008.06-.608zM8.003 9.686L8 9.937c-.808-.247-1.225-.167-1.302-.148l-.013.004c-.77 1.925-.28 3.36-.14 3.71-.893.98-1.435 2.24-1.435 3.762 0 5.355 3.255 6.563 6.37 6.912-.402.35-.77.963-.893 1.873-.804.367-2.817.962-4.077-1.155-.263-.42-1.05-1.453-2.152-1.435-1.173.017-.473.665.017.927.595.333 1.277 1.575 1.435 1.978.28.788 1.19 2.293 4.708 1.645 0 1.172.017 2.275.017 2.607 0 .368-.262.788-.963.665C4.008 29.427 0 24.195 0 18 0 12.048 3.709 6.967 8.943 4.94a13.939 13.939 0 00-.94 4.747z" fill="#24292E"/><path d="M22 20c5.523 0 10-4.477 10-10S27.523 0 22 0 12 4.477 12 10s4.477 10 10 10z" fill="#3074E0"/></g></svg>