<?xml version="1.0" encoding="UTF-8"?>
<svg width="32px" height="32px" viewBox="0 0 32 32" version="1.1" xmlns="http://www.w3.org/2000/svg" xmlns:xlink="http://www.w3.org/1999/xlink">
    <!-- Generator: Sketch 58 (84663) - https://sketch.com -->
    <title>Favicon</title>
    <desc>Created with Sketch.</desc>
    <g id="Favicon" stroke="none" stroke-width="1" fill="none" fill-rule="evenodd">
        <g id="favicon" transform="translate(0.000000, 4.000000)" fill="#24292E">
            <path d="M27.0576678,19.0592496 C25.5590603,22.9259924 22.3959192,25.9630619 18.4625,27.2825 C17.7625,27.4225 17.5,26.985 17.5,26.6175 C17.5,26.145 17.5175,24.64 17.5175,22.7675 C17.5175,21.455 17.08,20.615 16.5725,20.1775 C17.3841352,20.086305 18.2064631,19.9380825 18.9788097,19.6737062 C19.951505,19.8871605 20.962575,20 22,20 C23.7762672,20 25.4752721,19.6692009 27.0387697,19.0658476 Z M8.00342205,5.68735497 L8.00032738,5.93670034 C7.1917923,5.69033569 6.77459566,5.77019124 6.69799413,5.78901529 L6.685,5.7925 C5.915,7.7175 6.405,9.1525 6.545,9.5025 C5.6525,10.4825 5.11,11.7425 5.11,13.265 C5.11,18.62 8.365,19.8275 11.48,20.1775 C11.0775,20.5275 10.71,21.14 10.5875,22.05 C9.7825,22.4175 7.77,23.0125 6.51,20.895 C6.2475,20.475 5.46,19.4425 4.3575,19.46 C3.185,19.4775 3.885,20.125 4.375,20.3875 C4.97,20.72 5.6525,21.9625 5.81,22.365 C6.09,23.1525 7,24.6575 10.5175,24.01 C10.5175,25.1825 10.535,26.285 10.535,26.6175 C10.535,26.985 10.2725,27.405 9.5725,27.2825 C4.0075,25.4275 0,20.195 0,14 C0,8.04844471 3.70903886,2.9671667 8.94288304,0.940399519 C8.36913578,2.41891283 8.04001914,4.01708488 8.00342205,5.68735497 Z" id="Combined-Shape"></path>
        </g>
        <path d="M22,20 C27.5228475,20 32,15.5228475 32,10 C32,4.4771525 27.5228475,0 22,0 C16.4771525,0 12,4.4771525 12,10 C12,15.5228475 16.4771525,20 22,20 Z" id="Oval" fill="#3074E0"></path>
    </g>
</svg>